<svg width="306" height="275" viewBox="0 0 306 275" fill="none" xmlns="http://www.w3.org/2000/svg">
<path d="M142.886 41.7716C150.332 69.7394 140.062 96.8094 119.947 102.234C99.8322 107.659 77.4898 89.3836 70.044 61.4158C62.5981 33.4479 72.8684 6.37796 92.9833 0.953366C113.098 -4.47123 135.441 13.8037 142.886 41.7716Z" fill="#FF8BA7"/>
<path d="M74.4249 98.5055C88.8092 123.581 85.8501 152.404 67.8156 162.883C49.7811 173.363 23.5005 161.53 9.11624 136.455C-5.26803 111.38 -2.30895 82.557 15.7255 72.0774C33.76 61.5979 60.0406 73.4302 74.4249 98.5055Z" fill="#FF8BA7"/>
<path d="M234.253 61.4158C226.808 89.3837 204.465 107.659 184.35 102.234C164.235 96.8094 153.965 69.7395 161.411 41.7716C168.857 13.8037 191.199 -4.47119 211.314 0.953404C231.429 6.378 241.699 33.4479 234.253 61.4158Z" fill="#FF8BA7"/>
<path d="M296.884 136.455C282.5 161.53 256.219 173.363 238.184 162.883C220.15 152.404 217.191 123.581 231.575 98.5055C245.959 73.4302 272.24 61.5979 290.274 72.0774C308.309 82.557 311.268 111.38 296.884 136.455Z" fill="#FF8BA7"/>
<path fill-rule="evenodd" clip-rule="evenodd" d="M88.725 151.515C96.9478 143.199 107.839 138.126 119.434 137.213C131.029 136.299 142.565 139.605 151.963 146.533C161.892 139.269 174.16 136.049 186.33 137.513C198.499 138.976 209.679 145.016 217.646 154.432C225.613 163.848 229.785 175.951 229.332 188.335C228.878 200.719 223.834 212.477 215.2 221.272L169.207 267.779C164.633 272.403 158.43 275 151.963 275C145.495 275 139.292 272.403 134.718 267.779L88.725 221.28C79.5773 212.03 74.4382 199.484 74.4382 186.402C74.4382 173.32 79.5773 160.766 88.725 151.515Z" fill="#FF8BA7"/>
</svg>
